<?xml version="1.0" encoding="utf-8"?>
<!-- Generator: Adobe Illustrator 27.0.0, SVG Export Plug-In . SVG Version: 6.00 Build 0)  -->
<svg version="1.1" id="Layer_1" xmlns="http://www.w3.org/2000/svg" xmlns:xlink="http://www.w3.org/1999/xlink" x="0px" y="0px"
	 viewBox="0 0 500 500" style="enable-background:new 0 0 500 500;" xml:space="preserve">
<g>
	<g>
		<path d="M146.7,253.9h-13.7l-3.3,9.7h-5.8l13-36.1h6l13,36.1H150L146.7,253.9z M134.3,249.4h10.9l-5.4-15.8h-0.1L134.3,249.4
			L134.3,249.4z M184.7,250.5c0,8.2-4.4,13.4-11,13.4c-3.8,0-6.7-1.7-8.3-4.6h-0.1v13h-5.4v-35h5.2v4.4h0.1c1.5-2.8,4.7-4.6,8.4-4.6
			C180.3,237.1,184.7,242.4,184.7,250.5L184.7,250.5z M179.1,250.5c0-5.3-2.7-8.8-6.9-8.8c-4.1,0-6.9,3.6-6.9,8.8
			c0,5.3,2.8,8.8,6.9,8.8C176.4,259.4,179.1,255.9,179.1,250.5z M213.8,250.5c0,8.2-4.4,13.4-11,13.4c-3.8,0-6.7-1.7-8.3-4.6h-0.1
			v13H189v-35h5.2v4.4h0.1c1.5-2.8,4.7-4.6,8.4-4.6C209.4,237.1,213.8,242.4,213.8,250.5L213.8,250.5z M208.2,250.5
			c0-5.3-2.7-8.8-6.9-8.8c-4.1,0-6.9,3.6-6.9,8.8c0,5.3,2.8,8.8,6.9,8.8C205.5,259.4,208.2,255.9,208.2,250.5z M218.4,227.6h5.4
			v36.1h-5.4V227.6z M253,256c-0.7,4.8-5.4,8-11.3,8c-7.6,0-12.4-5.1-12.4-13.3c0-8.2,4.8-13.6,12.2-13.6c7.3,0,11.8,5,11.8,13v1.8
			h-18.6v0.3c0,4.5,2.8,7.4,7.1,7.4c3,0,5.3-1.4,6.1-3.7L253,256L253,256z M234.7,248.1h13.1c-0.1-4-2.7-6.7-6.4-6.7
			C237.7,241.4,235,244.1,234.7,248.1L234.7,248.1z M284,227.6c7,0,11.9,4.8,11.9,11.8c0,7-5,11.9-12,11.9h-7.7v12.3h-5.6v-36.1
			L284,227.6L284,227.6z M276.1,246.7h6.4c4.9,0,7.6-2.6,7.6-7.2c0-4.5-2.8-7.1-7.6-7.1h-6.4L276.1,246.7L276.1,246.7L276.1,246.7z
			 M298.4,250.5c0-8.3,4.9-13.5,12.5-13.5c7.6,0,12.5,5.2,12.5,13.5c0,8.3-4.8,13.5-12.5,13.5C303.3,264,298.4,258.8,298.4,250.5z
			 M317.9,250.5c0-5.7-2.6-9-7-9s-7,3.4-7,9c0,5.7,2.6,9,7,9S317.9,256.2,317.9,250.5z M327.1,250.5c0-8.1,4.5-13.4,11-13.4
			c3.8,0,6.7,1.7,8.2,4.6h0.1v-14.1h5.4v36.1h-5.2v-4.5h-0.1c-1.6,3-4.5,4.7-8.4,4.7C331.6,264,327.1,258.7,327.1,250.5L327.1,250.5
			z M332.6,250.5c0,5.4,2.7,8.8,6.9,8.8c4.1,0,6.9-3.5,6.9-8.8c0-5.3-2.8-8.8-6.9-8.8C335.4,241.7,332.6,245.2,332.6,250.5z
			 M375.3,246.4c-0.5-2.8-2.6-4.8-6.2-4.8c-4.1,0-6.9,3.5-6.9,8.9c0,5.6,2.8,9,6.9,9c3.4,0,5.5-1.7,6.1-4.7h5.2
			c-0.6,5.5-5,9.2-11.4,9.2c-7.5,0-12.4-5.1-12.4-13.5c0-8.2,4.9-13.5,12.3-13.5c6.7,0,10.9,4.2,11.4,9.4L375.3,246.4L375.3,246.4
			L375.3,246.4z M383.9,256.2c0-4.6,3.5-7.3,10.1-7.7l7-0.4v-2c0-3-2-4.6-5.4-4.6c-2.8,0-4.9,1.4-5.3,3.7h-5
			c0.1-4.7,4.5-8.1,10.5-8.1c6.4,0,10.6,3.4,10.6,8.6v18h-5.2v-4.3h-0.1c-1.5,2.8-4.8,4.7-8.3,4.7
			C387.5,264.1,383.9,260.8,383.9,256.2L383.9,256.2z M401,253.8v-2l-6.3,0.4c-3.5,0.2-5.3,1.6-5.3,3.8c0,2.2,1.9,3.8,4.9,3.8
			C398.1,259.8,401,257.2,401,253.8L401,253.8z M422.1,237.1c5.8,0,10,3.2,10.1,7.9h-5.1c-0.2-2.3-2.2-3.8-5.2-3.8
			c-2.9,0-4.9,1.3-4.9,3.4c0,1.6,1.3,2.6,4,3.3l4.4,1c5.3,1.3,7.3,3.2,7.3,7.1c0,4.7-4.5,8-10.9,8c-6.2,0-10.4-3.2-10.8-8h5.3
			c0.4,2.5,2.4,3.9,5.7,3.9c3.2,0,5.3-1.3,5.3-3.4c0-1.6-1-2.5-3.7-3.2l-4.7-1.1c-4.7-1.2-7.1-3.6-7.1-7.2
			C411.8,240.3,416,237.1,422.1,237.1L422.1,237.1z M444.8,231.2v6.2h5v4.3h-5v14.5c0,2.3,1,3.3,3.2,3.3c0.5,0,1.4-0.1,1.8-0.1v4.2
			c-0.6,0.2-1.8,0.2-3,0.2c-5.3,0-7.4-2-7.4-7.1v-15.1h-3.8v-4.3h3.8v-6.2L444.8,231.2L444.8,231.2z M464.3,237.1
			c5.8,0,10,3.2,10.1,7.9h-5.1c-0.2-2.3-2.2-3.8-5.2-3.8c-2.9,0-4.9,1.3-4.9,3.4c0,1.6,1.3,2.6,4,3.3l4.4,1c5.3,1.3,7.3,3.2,7.3,7.1
			c0,4.7-4.5,8-10.9,8c-6.2,0-10.4-3.2-10.8-8h5.3c0.4,2.5,2.4,3.9,5.7,3.9c3.2,0,5.3-1.3,5.3-3.4c0-1.6-1-2.5-3.7-3.2l-4.7-1.1
			c-4.7-1.2-7.1-3.6-7.1-7.2C454,240.3,458.2,237.1,464.3,237.1z"/>
	</g>
	<path d="M73.3,256.3c-1.3-1.3-3.5-2.2-6.1-2.2s-4.8,0.9-6.1,2.2c-0.6,0.7-1,1.5-1.1,2.4c-0.2,2-0.1,3.7,0.1,6.4
		c0.2,2.6,0.6,6,1.2,9.5c0.4,2.5,0.7,3.8,1,4.8c0.5,1.6,2.2,2.9,4.9,2.9c2.7,0,4.5-1.4,4.9-2.9c0.3-1,0.6-2.3,1-4.8
		c0.5-3.5,1-7,1.2-9.5c0.2-2.7,0.3-4.4,0.1-6.4C74.3,257.8,73.9,257,73.3,256.3z M60.3,244.4c0,3.8,3.1,6.9,6.9,6.9
		c3.8,0,6.9-3.1,6.9-6.9c0-3.8-3.1-6.9-6.9-6.9C63.4,237.5,60.3,240.6,60.3,244.4z M67.1,217.2c-16.1,0-29.4,13.1-29.6,29.3
		c-0.2,13.1,8.2,24.3,19.8,28.4c0.2,0.1,0.4,0,0.5-0.2c0-0.1,0-0.1,0-0.2c-0.2-1-0.3-2-0.4-3c0-0.4-0.3-0.7-0.6-0.8
		c-9.5-4.2-15.6-13.6-15.5-24c0.1-14,11.6-25.5,25.6-25.6c14.4-0.1,26.1,11.5,26.1,25.9c0,10.3-6.1,19.6-15.5,23.7
		c-0.3,0.1-0.6,0.4-0.6,0.8c-0.1,1-0.3,2-0.4,3c0,0.2,0.1,0.4,0.3,0.5c0.1,0,0.1,0,0.2,0c11.5-4.1,19.8-15.1,19.8-28
		C96.8,230.5,83.5,217.1,67.1,217.2z M66.5,230.8c8.9-0.3,16.3,6.6,16.7,15.5c0,0.2,0,0.4,0,0.6c0,4.4-1.8,8.7-5.1,11.7
		c-0.3,0.2-0.4,0.6-0.4,1c0.1,1.1,0,2.2,0,3.4c0,0.2,0.2,0.4,0.4,0.4c0.1,0,0.2,0,0.2-0.1c5.4-3.7,8.7-9.8,8.7-16.4
		c0-11-8.9-19.9-19.9-19.9c-0.2,0-0.5,0-0.8,0c-10.5,0.4-18.9,9.1-19.1,19.6c-0.1,6.7,3.2,12.9,8.7,16.7c0.2,0.1,0.4,0.1,0.5-0.1
		c0-0.1,0.1-0.2,0.1-0.2c-0.1-1.1-0.1-2.3,0-3.4c0-0.4-0.1-0.7-0.4-1c-3.4-3.1-5.2-7.6-5.1-12.1C51.4,238,58.1,231.1,66.5,230.8z"/>
</g>
</svg>
