<?xml version="1.0" encoding="utf-8"?>
<!-- Generator: Adobe Illustrator 25.4.8, SVG Export Plug-In . SVG Version: 6.00 Build 0)  -->
<svg version="1.1" id="Layer_1" xmlns="http://www.w3.org/2000/svg" xmlns:xlink="http://www.w3.org/1999/xlink" x="0px" y="0px"
	 viewBox="0 0 50 50" style="enable-background:new 0 0 50 50;" xml:space="preserve">
<style type="text/css">
	.st0{fill:#FFFFFF;}
</style>
<g>
	<g id="XMLID_00000158711794935776626840000003841342772212126081_">
		<g>
			<path id="XMLID_00000170973962674755121340000014506827809031197074_" class="st0" d="M0.8,16.6h10.4v33.3H0.8V16.6z M6,0.1
				c3.3,0,6,2.7,6,6c0,3.3-2.7,6-6,6c-3.3,0-6-2.7-6-6C0,2.7,2.7,0.1,6,0.1"/>
		</g>
	</g>
	<g id="XMLID_00000034767840849687675420000001838705828884770203_">
		<g>
			<path id="XMLID_00000070077020815993720670000016692615505880851894_" class="st0" d="M17.7,16.6h9.9v4.6h0.1
				c1.4-2.6,4.8-5.4,9.8-5.4c10.5,0,12.4,6.9,12.4,15.9v18.3H39.6V33.7c0-3.9-0.1-8.8-5.4-8.8c-5.4,0-6.2,4.2-6.2,8.6v16.5H17.7
				V16.6z"/>
		</g>
	</g>
</g>
</svg>
