<?xml version="1.0" encoding="utf-8"?>
<!-- Generator: Adobe Illustrator 25.4.8, SVG Export Plug-In . SVG Version: 6.00 Build 0)  -->
<svg version="1.1" id="Layer_1" xmlns="http://www.w3.org/2000/svg" xmlns:xlink="http://www.w3.org/1999/xlink" x="0px" y="0px"
	 viewBox="0 0 50 50" style="enable-background:new 0 0 50 50;" xml:space="preserve">
<style type="text/css">
	.st0{fill:#FFFFFF;}
</style>
<g id="XMLID_00000178925411876949697470000000134251185344562827_">
	<path id="XMLID_00000157279877680089979760000005601816179317346726_" class="st0" d="M15.2,36.5c-5.3-0.2-8.7-4-9.6-7.1
		c1.5,0.3,2.9,0.2,4.4-0.1c0,0,0.1,0,0.1-0.1c-2.9-0.7-5.1-2.2-6.7-4.7C2.5,22.8,2,21,2,19c1.4,0.8,3,1.2,4.6,1.2
		c-2.2-1.6-3.6-3.6-4.2-6.2c-0.6-2.6-0.2-5.1,1.1-7.4C9,13.1,16,16.7,24.6,17.3c-0.1-0.4-0.1-0.8-0.2-1.1c-0.3-2.4,0.2-4.7,1.5-6.7
		c1.6-2.6,4-4.2,7-4.6c3.5-0.6,6.5,0.4,9,2.9c0.2,0.2,0.3,0.2,0.5,0.2c2.1-0.5,4.1-1.2,6-2.3c0,0,0.1-0.1,0.1-0.1c0,0,0,0,0.1,0
		c-0.8,2.4-2.3,4.2-4.4,5.6c2-0.2,3.9-0.7,5.7-1.5c0,0,0,0,0,0c-0.4,0.5-0.8,1-1.2,1.5c-1.1,1.3-2.3,2.5-3.7,3.5
		c-0.1,0.1-0.2,0.2-0.2,0.3c0.1,1.5,0,3-0.2,4.6c-0.4,3.2-1.3,6.2-2.6,9.1c-1.4,3-3.2,5.7-5.6,8.1c-3.9,4-8.6,6.7-14.1,7.9
		c-1.9,0.4-3.8,0.6-5.7,0.7C10.8,45.5,5.3,44,0.2,40.9c-0.1,0-0.1-0.1-0.2-0.2c3.6,0.4,7-0.1,10.3-1.4C12,38.6,13.6,37.7,15.2,36.5z
		"/>
</g>
</svg>
