<?xml version="1.0" encoding="utf-8"?>
<!-- Generator: Adobe Illustrator 27.0.0, SVG Export Plug-In . SVG Version: 6.00 Build 0)  -->
<svg version="1.1" id="Layer_1" xmlns="http://www.w3.org/2000/svg" xmlns:xlink="http://www.w3.org/1999/xlink" x="0px" y="0px"
	 viewBox="0 0 512 512" style="enable-background:new 0 0 512 512;" xml:space="preserve">
<style type="text/css">
	.st0{fill:#FFFFFF;}
</style>
<g id="XMLID_1_">
	<path id="lozenge_2_" d="M450.2,209.4c0,0-2.3-16.1-9.3-23.1c-8.9-9.3-18.9-9.3-23.5-9.9c-32.8-2.4-81.9-2.4-81.9-2.4h-0.1
		c0,0-49.2,0-81.9,2.4c-4.6,0.5-14.6,0.6-23.5,9.9c-7,7.1-9.3,23.1-9.3,23.1s-2.3,18.9-2.3,37.7v17.7c0,18.9,2.3,37.7,2.3,37.7
		s2.3,16.1,9.3,23.1c8.9,9.3,20.6,9,25.8,10c18.7,1.8,79.6,2.3,79.6,2.3s49.2-0.1,82-2.4c4.6-0.5,14.6-0.6,23.5-9.9
		c7-7.1,9.3-23.1,9.3-23.1s2.3-18.9,2.3-37.7v-17.7C452.5,228.2,450.2,209.4,450.2,209.4z"/>
	<path id="u_2_" d="M206.2,306.7h-14.9v-8.6c-5.7,6.5-10.4,9.7-15.7,9.7c-4.6,0-7.8-2.2-9.4-6.1c-1-2.4-1.7-6.1-1.7-11.5v-62.8h14.9
		v58.8c0,3.3,0,4.7,0,5.5c0.3,2.2,1.3,3,3.2,3c2.9,0,5.4-2.5,8.6-6.9v-60.4h14.9V306.7z"/>
	<path id="o_2_" d="M153.6,253.4c0-8.5-1.7-14.8-4.7-18.8c-4-5.4-10.2-7.6-16.5-7.6c-7.1,0-12.5,2.2-16.5,7.6
		c-3.1,4-4.7,10.4-4.7,18.9l0,28.2c0,8.4,1.5,14.2,4.5,18.2c4,5.4,10.4,8.3,16.7,8.3c6.3,0,12.8-2.9,16.8-8.3c3-4,4.4-9.8,4.4-18.2
		V253.4z M138.7,283.2c0.8,7.8-1.6,11.7-6.3,11.7c-4.6,0-7.1-3.9-6.3-11.7v-31.4c-0.8-7.8,1.6-11.5,6.3-11.5c4.6,0,7.1,3.7,6.3,11.5
		L138.7,283.2z"/>
	<path id="y_2_" d="M94.8,263.6v43.1H79.1v-43.1c0,0-16.3-52.9-19.6-62.8H76l11,41.3l11-41.3h16.5L94.8,263.6z"/>
	<path id="e_1_" class="st0" d="M432.9,269.9l0-16c0-8.4-1.7-14.5-4.6-18.5c-4-5.4-9.6-8.2-16.8-8.2c-7.2,0-12.9,2.8-17,8.2
		c-3,4-4.8,10.4-4.8,18.8v27.5c0,8.3,1.9,14.2,5,18.1c4.1,5.4,9.8,8,17.2,8c7.4,0,13.2-2.8,17.2-8.5c1.7-2.5,2.8-5.4,3.3-8.5
		c0.1-1.4,0.5-4.7,0.5-9.2v-2.2H418c0,5.7,0,9.1-0.1,9.9c-0.8,3.8-2.8,5.7-6.3,5.7c-4.9,0-6.9-3.6-6.9-10.9v-14.1H432.9z
		 M404.6,249.4c0-7.3,2-9.3,6.8-9.3c4.7,0,6.6,2.2,6.6,9.4v8.6l-13.3,0V249.4z"/>
	<path id="b_1_" class="st0" d="M367.1,227c-5.2,0-10.4,3.2-15,8.9l0-34.3H338v105.1h14.1l0-7.9c4.7,5.9,9.9,8.9,15,8.9
		c5.7,0,9.8-3,11.7-8.9c0.9-3.3,1.6-8.4,1.6-15.7v-31.4c0-7.4-1-12.5-1.9-15.7C376.5,230.3,372.7,227,367.1,227z M365.4,284
		c0,7.8-1.8,10.8-5.9,10.8c-2.3,0-5-1.2-7.4-3.6l0-47.6c2.4-2.3,5.1-3.6,7.4-3.6c4.1,0,5.9,2.3,5.9,10.1V284z"/>
	<path id="u_1_" class="st0" d="M326.2,306.7h-14.9v-8.6c-5.7,6.5-10.4,9.7-15.7,9.7c-4.6,0-7.8-2.2-9.4-6.1
		c-1-2.4-1.7-6.1-1.7-11.5v-62h14.9v58c0,3.3,0,4.7,0,5.5c0.3,2.2,1.3,3,3.2,3c2.9,0,5.4-2.5,8.6-6.9v-59.6h14.9V306.7z"/>
	<polygon id="T" class="st0" points="269.7,306.7 254,306.7 254,216.5 237.6,216.5 237.6,201.6 287,201.6 287,216.5 269.7,216.5 	
		"/>
</g>
</svg>
