<?xml version="1.0" encoding="utf-8"?>
<!-- Generator: Adobe Illustrator 25.4.8, SVG Export Plug-In . SVG Version: 6.00 Build 0)  -->
<svg version="1.1" id="Layer_1" xmlns="http://www.w3.org/2000/svg" xmlns:xlink="http://www.w3.org/1999/xlink" x="0px" y="0px"
	 viewBox="0 0 50 50" style="enable-background:new 0 0 50 50;" xml:space="preserve">
<style type="text/css">
	.st0{fill:#FFFFFF;}
</style>
<g id="XMLID_00000042730179413166291430000010117663353188341416_">
	<path id="XMLID_00000141434663609750375460000015409732955884521659_" class="st0" d="M5.1,41.5c-1.9-0.6-3.2-1.9-3.8-3.7
		c-1.7-4.6-2.2-23.7,1-27.5c1.1-1.3,2.5-2,4.2-2.2c8.6-0.9,35.3-0.8,38.3,0.3c1.8,0.6,3.1,1.8,3.8,3.6c1.8,4.7,1.9,21.9-0.2,26.5
		c-0.6,1.2-1.5,2.1-2.7,2.7C42.5,42.9,9.4,42.9,5.1,41.5z M18.8,32.5c5.2-2.7,10.3-5.4,15.5-8.1c-5.2-2.7-10.4-5.4-15.5-8.1
		C18.8,21.8,18.8,27.1,18.8,32.5z"/>
</g>
</svg>
