<?xml version="1.0" encoding="utf-8"?>
<!-- Generator: Adobe Illustrator 25.4.8, SVG Export Plug-In . SVG Version: 6.00 Build 0)  -->
<svg version="1.1" id="Layer_1" xmlns="http://www.w3.org/2000/svg" xmlns:xlink="http://www.w3.org/1999/xlink" x="0px" y="0px"
	 viewBox="0 0 50 50" style="enable-background:new 0 0 50 50;" xml:space="preserve">
<style type="text/css">
	.st0{fill:#FFFFFF;}
</style>
<g id="XMLID_00000170981696595100941270000018160322527981689766_">
	<g>
		<path id="XMLID_00000126320418428457093630000016939513009157106092_" class="st0" d="M32.8,8.4c1.5-0.1,3.1,0,4.6,0
			c0.2,0,0.4,0,0.6,0V0.4c-0.8-0.1-1.7-0.2-2.6-0.2C33.9,0.1,32.3,0,30.7,0C28.3,0.1,26,0.7,24,2.1c-2.3,1.7-3.6,4-4,6.7
			c-0.2,1.1-0.3,2.3-0.3,3.5c0,1.8,0,3.6,0,5.4v0.7h-7.7v9h7.7V50H29V27.4h7.6c0.4-3,0.8-6,1.2-9c-0.6,0-1.2,0-1.7,0
			c-2.2,0-7.2,0-7.2,0s0-4.5,0.1-6.4C29.1,9.3,30.6,8.5,32.8,8.4z"/>
	</g>
</g>
</svg>
