<?xml version="1.0" encoding="utf-8"?>
<!-- Generator: Adobe Illustrator 25.4.8, SVG Export Plug-In . SVG Version: 6.00 Build 0)  -->
<svg version="1.1" id="Layer_1" xmlns="http://www.w3.org/2000/svg" xmlns:xlink="http://www.w3.org/1999/xlink" x="0px" y="0px"
	 viewBox="0 0 50 50" style="enable-background:new 0 0 50 50;" xml:space="preserve">
<style type="text/css">
	.st0{fill:#FFFFFF;}
</style>
<g id="XMLID_00000058586047199809169250000001281554584507546279_">
	<path id="XMLID_00000131360476590595482760000014369122740990359969_" class="st0" d="M49.6,12.5c-0.3-3.3-1.6-6.2-4-8.5
		c-2.6-2.5-5.7-3.5-9.2-3.7C30.5,0,16.6-0.2,11.7,0.6C6.1,1.5,2.4,4.7,0.8,10.3c-1.2,4.3-1,23.9-0.3,28.1c0.9,5.7,4.3,9.4,10,10.9
		c3.9,1,23.3,0.9,27.7,0.2c5.8-0.9,9.5-4.3,11-10C50.4,35.1,50,16.5,49.6,12.5z M45,37.5c-0.7,4.4-3.6,7.1-8,7.6
		c-4,0.4-22,0.7-25.8-0.4c-3.6-1-5.6-3.5-6.2-7.1C4.5,34.2,4.3,17,5,12.4c0.7-4.3,3.6-7,7.9-7.5C17.4,4.4,33.3,4.4,37.6,5
		c4.4,0.7,7.1,3.6,7.5,8C45.5,17.1,45.7,33.1,45,37.5z M25,12.2c-7.1,0-12.8,5.7-12.8,12.8c0,7.1,5.7,12.8,12.8,12.8
		c7.1,0,12.8-5.7,12.8-12.8C37.8,17.9,32.1,12.2,25,12.2z M24.9,33.3c-4.6,0-8.3-3.8-8.2-8.4c0-4.6,3.8-8.3,8.4-8.2
		c4.6,0,8.3,3.8,8.2,8.4C33.2,29.6,29.5,33.3,24.9,33.3z M41.3,11.7c0,1.7-1.4,3-3,3c-1.7,0-3-1.4-3-3c0-1.7,1.4-3,3-3
		C40,8.7,41.3,10,41.3,11.7z"/>
</g>
</svg>
